<svg width="20" height="20" viewBox="0 0 20 20" fill="none" xmlns="http://www.w3.org/2000/svg">
<path d="M18.7139 8.82523C18.9767 8.55734 19.0673 8.16489 18.9487 7.80888C18.8301 7.45287 18.5222 7.19324 18.1512 7.1365L13.1624 6.37334L10.9049 1.57433C10.74 1.22377 10.3874 1 10 1C9.61259 1 9.26003 1.22377 9.09512 1.57433L6.8376 6.37334L1.84878 7.1365C1.47785 7.19324 1.1699 7.45287 1.05128 7.80888C0.932657 8.16489 1.02333 8.55734 1.28609 8.82523L4.93097 12.5413L4.06012 17.8378C3.99797 18.2158 4.15723 18.596 4.47019 18.817C4.78314 19.0379 5.1948 19.0606 5.53017 18.8755L10 16.4079L14.4698 18.8755C14.8052 19.0606 15.2169 19.0379 15.5298 18.817C15.8428 18.596 16.002 18.2158 15.9399 17.8378L15.069 12.5413L18.7139 8.82523Z" fill="#FFC800" stroke="white" stroke-width="2" stroke-linejoin="round"/>
</svg>
